# xmcd CD database file
#
# Track frame offsets:
#	183
#	15688
#	26360
#	41498
#	53288
#	68435
#	83880
#	96458
#	109478
#	122658
#	134050
#	154193
#	167383
#	180598
#
# Disc length: 2568 seconds
#
# Revision: 2
# Processed by: cddbd v1.5.1PL0 Copyright (c) Steve Scherf et al.
# Submitted via: CDex 1.51
#
DISCID=ad0a060e
DTITLE=Lourenço and Lourival - Meu Reino Encantado
DYEAR=2001
DGENRE=Sertaneja
TTITLE0=Meu Reino Encantado
TTITLE1=Solidão (Che Picazu Mi)
TTITLE2=Rainha do Paraná
TTITLE3=A Caneta e a Enxada
TTITLE4=Vou Tomá um Pingão
TTITLE5=Rio de Lagrimas
TTITLE6=Curitibana
TTITLE7=Lar Feliz
TTITLE8=Encanto da Natureza
TTITLE9=Cana Verde
TTITLE10=A Sementinha
TTITLE11=Relogio Quebrado
TTITLE12=O Menino Caçador
TTITLE13=Desde que te vi (En'de que te vi)
EXTD=YEAR: 2001
EXTT0=
EXTT1=
EXTT2=
EXTT3=
EXTT4=
EXTT5=
EXTT6=
EXTT7=
EXTT8=
EXTT9=
EXTT10=
EXTT11=
EXTT12=
EXTT13=
PLAYORDER=
